<?xml version="1.0" encoding="utf-8"?>
<!-- Generator: Adobe Illustrator 23.0.2, SVG Export Plug-In . SVG Version: 6.00 Build 0)  -->
<svg version="1.1" id="Layer_1" xmlns="http://www.w3.org/2000/svg" xmlns:xlink="http://www.w3.org/1999/xlink" x="0px" y="0px"
	 viewBox="0 0 1257.6 221.5" style="enable-background:new 0 0 1257.6 221.5;" xml:space="preserve">
<style type="text/css">
	.st0{fill:#c26027;}
	.st1{fill:#c26027;stroke:#c26027;stroke-width:0.25;stroke-miterlimit:10;}
</style>
<g id="Text">
	<g>
		<g>
			<path class="st0" d="M99,96.1c3.4,8.8,7.6,18,18.2,24.3l-0.2,1c-1.9-0.1-8.6-1.2-15.9-1.2c-7.7,0-12.2,1-14,1.2l-0.2-1
				c2.4-1.3,3.9-7.4,0.7-15.6l-11.2-29H35.6l-10,28.4c-2.8,8.2,1.2,15.6,5.5,16.4l-0.2,1c-1.8-0.1-5.4-1.2-15.2-1.3
				c-8.5-0.1-13.7,1-15.5,1.2l-0.3-1c6.4-2.8,12.7-12.2,16.2-22L49,8.3c1-3,1.6-5.8,1.8-7.1h13c0.2,2.5,2.5,11.2,4,15L99,96.1z
				 M55.1,19.8L39.3,64.9h33L55.1,19.8z"/>
			<path class="st0" d="M275.2,44.2l-0.7,0.2c-0.8-3.1-5-7.5-13.3-7.5h-9.7c-2.3,0-4.9,0.1-7.3,0.1v72.2c0,7.2,3.3,10.3,6.4,11
				l-0.2,0.7c-1.3-0.1-5.8-0.8-10.9-0.8s-10.8,0.7-12.1,0.8l-0.2-0.7c3.1-0.8,6.4-3.9,6.4-11V37.1c-2.4,0-4.9-0.1-7.1-0.1h-9.7
				c-8.3,0-12.5,4.4-13.3,7.5l-0.7-0.2c0.1-1.3,1-5.9,1-15.6c2.4,0.3,5.8,0.5,8.4,0.5H239c8.5,0,22.7,0,26.7,0
				c2.6,0,6.2-0.1,8.4-0.5C274.1,38.3,275,43,275.2,44.2z"/>
			<path class="st0" d="M364.8,109.3c0,7.2,3.3,10.3,6.4,11l-0.2,0.7c-1.3-0.1-5.8-0.8-10.9-0.8s-10.8,0.7-12.1,0.8l-0.2-0.7
				c3.1-0.8,6.4-3.9,6.4-11V77.4h-48.8v31.9c0,7.2,3.3,10.3,6.4,11l-0.2,0.7c-1.3-0.1-5.8-0.8-10.9-0.8s-10.8,0.7-12.1,0.8l-0.2-0.7
				c3.1-0.8,6.4-3.9,6.4-11V40c0-7.2-3.3-10.3-6.4-11.1l0.2-0.7c1.3,0.1,7,0.8,12.1,0.8s9.7-0.7,10.9-0.8l0.2,0.7
				c-3.1,0.8-6.4,3.9-6.4,11.1v29.2h48.8V40c0-7.2-3.3-10.3-6.4-11.1l0.2-0.7c1.3,0.1,7,0.8,12.1,0.8s9.7-0.7,10.9-0.8l0.2,0.7
				c-3.1,0.8-6.4,3.9-6.4,11.1V109.3z"/>
			<path class="st0" d="M463.4,111.3c0.6,5,3.5,8.4,6.3,9.1l-0.2,0.7c-1.3-0.1-5.6-0.8-10.5-0.8c-2.7,0-4.2,0.5-5.7,0.8v-12.9
				c-3.3,4.9-12.2,12.9-25.6,12.9c-15.8,0-30.5-10.4-30.7-28.8V40c0-7.2-3.3-10.3-6.4-11.1l0.2-0.7c1.3,0.1,7,0.8,12.1,0.8
				s9.7-0.7,10.9-0.8l0.2,0.7c-3.1,0.8-6.4,3.9-6.4,11.1v52.2c0,9.8,8.7,20.6,21.9,20.6c13.3,0,21.8-12,23.1-17.7V40
				c0-7.2-3.3-10.3-6.4-11.1l0.2-0.7c1.3,0.1,7,0.8,12.1,0.8s9.7-0.7,10.9-0.8l0.2,0.7c-3.1,0.8-6.4,3.9-6.4,11.1L463.4,111.3
				L463.4,111.3z"/>
			<path class="st0" d="M741.3,106c0.7,9.4,4.3,13.4,8.3,14.4l-0.3,0.9c-1.6-0.1-7.6-1-14.3-1c-7.1,0-14.6,0.9-16.2,1l-0.3-0.9
				c4-1,9.1-5.1,8.3-14.4l-3.7-80.5l-47,95.9l-46.7-97.5l-4.9,82.8c0.6,7.1,6.1,12.5,10.6,13.8l-0.3,0.9c-1.6-0.1-7-1-15.9-1
				c-10.4,0-14,0.9-15.6,1l-0.3-0.9c4.8-1.2,10.6-7.3,10.7-15l5.7-98.1c-3.3-3.3-6.7-5.2-8.6-6.4l0.3-0.9c1.6,0.6,4.6,1.2,11.3,1.2
				c3.4,0,7.9-0.1,11.3-1c0.3,2.4,1.2,5.2,2.5,7.7L678,93l40.9-83.6c1.6-3.4,1.5-6.7,0.2-8.3l0.2-0.9c2.1,0.6,5.4,1,12.7,1
				c6.7,0,10.6-0.6,12.2-1.2l0.3,0.9c-2.5,1.3-8.6,7.4-8.5,16.4L741.3,106z"/>
			<path class="st0" d="M782.9,109.3c0,7.2,3.3,10.3,6.4,11l-0.2,0.7c-1.3-0.1-5.8-0.8-10.9-0.8s-10.8,0.7-12.1,0.8l-0.2-0.7
				c3.1-0.8,6.4-3.9,6.4-11V40c0-7.2-3.3-10.3-6.4-11.1l0.2-0.7c1.3,0.1,6.9,0.8,12.1,0.8s9.7-0.7,10.9-0.8l0.2,0.7
				c-3.1,0.8-6.4,3.9-6.4,11.1V109.3z"/>
			<path class="st0" d="M848.4,36.6c-18.9,0-30.7,13.9-30.7,34.6c0,23.3,15.2,41.7,35.6,41.7c9.7,0,16.5-3.3,21.8-6.5
				c1.8-1.1,2.8-2.3,3.4-3.4l0.8,0.5c-0.5,1.8-0.6,4.6-0.5,8.2c-5.6,4.6-14.1,9.4-27.6,9.4c-28.3,0-44.9-22-44.9-46.2
				c0-24.3,17-46.6,44.7-46.6c5,0,11.4,0.7,15.3,0.8c3.9,0,6.4-0.3,8.7-0.8c0,10.5,1,16,1.1,17.3l-0.8,0.3
				C867.8,38.7,860,36.6,848.4,36.6z"/>
			<path class="st0" d="M972,109.3c0,7.2,3.3,10.3,6.4,11l-0.2,0.7c-1.3-0.1-5.8-0.8-10.9-0.8s-10.8,0.7-12.1,0.8l-0.2-0.7
				c3.1-0.8,6.4-3.9,6.4-11V77.4h-48.8v31.9c0,7.2,3.3,10.3,6.4,11l-0.2,0.7c-1.3-0.1-5.8-0.8-10.9-0.8s-10.8,0.7-12.1,0.8l-0.2-0.7
				c3.1-0.8,6.4-3.9,6.4-11V40c0-7.2-3.3-10.3-6.4-11.1l0.2-0.7c1.3,0.1,6.9,0.8,12.1,0.8s9.7-0.7,10.9-0.8l0.2,0.7
				c-3.1,0.8-6.4,3.9-6.4,11.1v29.2h48.8V40c0-7.2-3.3-10.3-6.4-11.1l0.2-0.7c1.3,0.1,6.9,0.8,12.1,0.8s9.7-0.7,10.9-0.8l0.2,0.7
				c-3.1,0.8-6.4,3.9-6.4,11.1V109.3z"/>
			<path class="st0" d="M1063.8,101.8c2.6,6.7,5.8,13.8,13.9,18.6l-0.1,0.8c-1.5-0.1-6.6-0.9-12.2-0.9c-5.9,0-9.3,0.8-10.7,0.9
				l-0.1-0.8c1.8-1,3-5.7,0.6-12l-8.6-22.2h-31.3l-7.6,21.8c-2.2,6.3,0.9,12,4.2,12.5l-0.1,0.8c-1.4-0.1-4.1-0.9-11.6-1
				c-6.5-0.1-10.5,0.8-11.8,0.9l-0.2-0.8c4.9-2.2,9.7-9.4,12.4-16.9l25.1-68.9c0.8-2.3,1.3-4.4,1.4-5.5h9.9
				c0.1,1.9,1.9,8.6,3.1,11.5L1063.8,101.8z M1030.2,43.3l-12.1,34.5h25.3L1030.2,43.3z"/>
			<path class="st0" d="M1142,105.1c-1.5,2-5.9,12.4-7.4,16.1c-4.8-0.8-9.5-0.8-14.3-0.9h-21.8c-5.1,0-9.7,0.7-10.9,0.8l-0.2-0.7
				c3.1-0.8,6.4-5,6.4-10.9V109V40c0-6-3.3-10.3-6.4-11.1l0.2-0.7c1.3,0.1,5.8,0.8,10.9,0.8h22.3h5.7c3.5-0.1,7.2-0.1,10.7-0.8
				c0,9.7,0.9,15,1,16.3l-0.7,0.2c-0.8-3.1-5-7.5-13.3-7.5h-9.7c-2.7,0-6.8,0.1-10.1,0.2v31.8h16.2c6,0,10.3-4.4,11.1-7.5l0.7,0.2
				c-0.1,1-0.7,5-0.8,11.3c0,6.3,0.7,10.5,0.8,11.5l-0.7,0.2c-0.8-3.1-5-7.5-11.1-7.5h-16.2v28.6c0,3.2,1.5,5.6,4.8,5.9h5h12.7
				c6.7,0,12-4.7,14.5-7.5L1142,105.1z"/>
			<path class="st0" d="M1213.7,105.1c-1.5,2-5.9,12.4-7.4,16.1c-4.8-0.8-10.8-0.8-16.5-0.9h-19.5c-5.1,0-9.7,0.7-10.9,0.8l-0.2-0.7
				c3.1-0.8,6.4-5,6.4-10.9V109V40c0-7.2-3.3-10.3-6.4-11.1l0.2-0.7c1.3,0.1,6.9,0.8,12.1,0.8s9.7-0.7,10.9-0.8l0.2,0.7
				c-3.1,0.8-6.4,3.9-6.4,11.1v66.1c0,3.3,1.6,5.7,4.9,5.9h2.6h14.9c6.7,0,12-4.7,14.5-7.5L1213.7,105.1z"/>
		</g>
		<g>
			<path class="st0" d="M143.8,36.7v37.3c0,1.2,0.4,2,1.1,2.2c2.2,0.8,5.3,1.2,9.1,1.2s6.7-0.7,8.5-2.1c4.7-3.5,7.1-9.7,7.1-18.4
				c0-7.8-2.2-13.7-6.5-17.8c-3.5-3.1-7.4-4.7-11.9-4.7c-3.8,0-6.1,0.3-6.8,0.7C144,35.5,143.8,36,143.8,36.7z M129.6,86V64.4
				c0-14.7-0.1-23.3-0.2-26c-0.2-3.9-2-6.3-5.2-7c-1.1-0.3-2.7-0.4-4.7-0.4c-1.4,0-2-0.4-2-1.1s0.9-1.1,2.6-1.1
				c2.5,0,5.7,0.1,9.7,0.2c4,0.1,6.3,0.2,6.7,0.2c1.4,0,4.2-0.1,8.6-0.2c4.4-0.1,7.2-0.2,8.3-0.2c9.7,0,17.1,1.8,22.1,5.3
				c2,1.4,3.8,3.5,5.3,6.3c1.9,3.3,2.9,6.8,2.9,10.6c0,9.6-5.3,18.8-15.9,27.5c43.4,78,96.2,51.7,96.2,55c0,0-58.6,37.8-106.8-49.1
				c-0.5-0.6-1.2-0.9-2.2-0.9h-10.5c-0.6,0-1,0.3-1,1v1.7c0,13.8,0.2,22.5,0.6,26.1c0.5,4.1,2,6.4,4.7,6.7c2.4,0.3,4.4,0.5,5.9,0.5
				c1,0,1.4,0.3,1.4,1c0,0.8-0.8,1.2-2.4,1.2c-2.7,0-6.3-0.1-10.8-0.2s-6.8-0.2-6.9-0.2c-0.6,0-2.7,0.1-6.4,0.2
				c-3.7,0.1-6.5,0.2-8.3,0.2c-1.6,0-2.4-0.4-2.4-1.2c0-0.6,0.9-0.9,2.6-1.1c1.2-0.2,2.4-0.3,3.6-0.4c1.8-0.4,3-2.7,3.5-6.8
				C129.4,108.9,129.6,100.2,129.6,86z"/>
		</g>
		<g>
			<path class="st0" d="M509.1,36.7v37.3c0,1.2,0.4,2,1.1,2.2c2.2,0.8,5.3,1.2,9.1,1.2s6.7-0.7,8.5-2.1c4.7-3.5,7.1-9.7,7.1-18.4
				c0-7.8-2.2-13.7-6.5-17.8c-3.4-3.1-7.4-4.7-11.9-4.7c-3.8,0-6.1,0.3-6.8,0.7C509.3,35.5,509.1,36,509.1,36.7z M494.9,86V64.4
				c0-14.7-0.1-23.3-0.2-26c-0.2-3.9-2-6.3-5.2-7c-1.1-0.3-2.7-0.4-4.7-0.4c-1.4,0-2-0.4-2-1.1s0.9-1.1,2.6-1.1
				c2.5,0,5.7,0.1,9.7,0.2c4,0.1,6.3,0.2,6.7,0.2c1.4,0,4.2-0.1,8.6-0.2c4.4-0.1,7.2-0.2,8.3-0.2c9.7,0,17.1,1.8,22.1,5.3
				c2,1.4,3.8,3.5,5.3,6.3c1.9,3.3,2.9,6.8,2.9,10.6c0,9.6-5.3,18.8-15.9,27.5c43.4,78,96.2,51.7,96.2,55c0,0-58.6,37.8-106.8-49.1
				c-0.5-0.6-1.2-0.9-2.2-0.9H510c-0.6,0-1,0.3-1,1v1.7c0,13.8,0.2,22.5,0.6,26.1c0.5,4.1,2,6.4,4.7,6.7c2.4,0.3,4.4,0.5,5.9,0.5
				c1,0,1.4,0.3,1.4,1c0,0.8-0.8,1.2-2.4,1.2c-2.7,0-6.3-0.1-10.8-0.2s-6.8-0.2-6.9-0.2c-0.6,0-2.7,0.1-6.4,0.2
				c-3.7,0.1-6.4,0.2-8.3,0.2c-1.6,0-2.4-0.4-2.4-1.2c0-0.6,0.9-0.9,2.6-1.1c1.2-0.2,2.4-0.3,3.6-0.4c1.8-0.4,3-2.7,3.5-6.8
				C494.7,108.9,494.9,100.2,494.9,86z"/>
		</g>
		<g>
			<path class="st1" d="M152.2,220.7l-18.2-46.9h6.7l12.2,34.1c1,2.7,1.8,5.3,2.5,7.7c0.7-2.6,1.6-5.1,2.5-7.7l12.7-34.1h6.3
				l-18.4,46.9H152.2z"/>
			<path class="st1" d="M256.5,220.7v-46.9h6.2v46.9H256.5z"/>
			<path class="st1" d="M346.4,220.7v-46.9h6.4l24.7,36.9v-36.9h6v46.9H377l-24.7-36.9v36.9H346.4z"/>
			<path class="st1" d="M466.8,220.7v-46.9h33.9v5.5H473v14.4h26v5.5h-26v16h28.8v5.5L466.8,220.7L466.8,220.7z"/>
			<path class="st1" d="M595.3,220.7v-19.9l-18.1-27h7.6l9.3,14.1c1.7,2.6,3.3,5.3,4.8,7.9c1.4-2.5,3.1-5.2,5.1-8.3l9.1-13.8h7.2
				l-18.7,27v19.9H595.3z"/>
			<path class="st1" d="M688.8,220.7l18-46.9h6.7l19.2,46.9h-7.1l-5.5-14.2h-19.6l-5.2,14.2H688.8z M702.3,201.4h15.9l-4.9-13
				c-1.5-4-2.6-7.2-3.3-9.7c-0.6,3-1.4,6-2.5,9L702.3,201.4z"/>
			<path class="st1" d="M807,220.7v-46.9h20.8c4.2,0,7.4,0.4,9.5,1.3s3.9,2.3,5.2,4.5c1.3,2.1,1.9,4.5,1.9,7.1
				c0,3.3-1.1,6.1-3.2,8.4c-2.2,2.3-5.5,3.7-10,4.4c1.6,0.8,2.9,1.6,3.8,2.3c1.8,1.7,3.5,3.8,5.2,6.2l8.2,12.8h-7.8l-6.2-9.8
				c-1.8-2.8-3.3-5-4.5-6.5c-1.2-1.5-2.2-2.5-3.2-3.1c-0.9-0.6-1.9-1-2.8-1.3c-0.7-0.1-1.9-0.2-3.5-0.2h-7.2v20.8L807,220.7
				L807,220.7z M813.2,194.5h13.3c2.8,0,5.1-0.3,6.7-0.9s2.8-1.5,3.7-2.8c0.8-1.3,1.3-2.7,1.3-4.2c0-2.2-0.8-4-2.4-5.5
				s-4.2-2.1-7.6-2.1h-14.8V194.5z"/>
			<path class="st1" d="M927.1,220.7v-46.9h16.2c3.7,0,6.4,0.2,8.4,0.7c2.7,0.6,5,1.7,6.9,3.4c2.5,2.1,4.3,4.8,5.6,8
				c1.2,3.3,1.8,7,1.8,11.2c0,3.6-0.4,6.7-1.3,9.5c-0.8,2.8-1.9,5-3.2,6.8c-1.3,1.8-2.7,3.2-4.3,4.3c-1.6,1-3.4,1.8-5.6,2.4
				c-2.2,0.5-4.7,0.8-7.5,0.8H927.1z M933.3,215.2h10c3.1,0,5.5-0.3,7.3-0.9c1.8-0.6,3.2-1.4,4.2-2.4c1.5-1.5,2.6-3.5,3.4-5.9
				s1.2-5.5,1.2-9c0-4.9-0.8-8.7-2.4-11.3s-3.6-4.4-5.9-5.3c-1.7-0.6-4.3-1-8-1h-9.9L933.3,215.2L933.3,215.2z"/>
			<path class="st1" d="M1045.2,205.6l5.9-0.5c0.3,2.4,0.9,4.3,1.9,5.8c1,1.5,2.6,2.7,4.7,3.6s4.5,1.4,7.2,1.4
				c2.4,0,4.5-0.4,6.3-1.1c1.8-0.7,3.2-1.7,4.1-2.9c0.9-1.2,1.3-2.6,1.3-4c0-1.5-0.4-2.8-1.3-3.9c-0.8-1.1-2.3-2-4.2-2.8
				c-1.3-0.5-4-1.3-8.4-2.3c-4.3-1-7.3-2-9.1-2.9c-2.2-1.2-3.9-2.6-5-4.4s-1.7-3.7-1.7-5.8c0-2.4,0.7-4.6,2-6.6
				c1.3-2.1,3.3-3.6,5.9-4.7s5.4-1.6,8.6-1.6c3.5,0,6.6,0.6,9.2,1.7s4.7,2.8,6.1,5c1.4,2.2,2.2,4.6,2.3,7.4l-5.9,0.5
				c-0.3-3-1.4-5.2-3.3-6.7c-1.8-1.5-4.6-2.3-8.2-2.3c-3.8,0-6.5,0.7-8.2,2.1c-1.7,1.4-2.6,3-2.6,5c0,1.7,0.6,3.1,1.8,4.2
				c1.2,1.1,4.3,2.2,9.4,3.4c5.1,1.1,8.5,2.1,10.4,3c2.7,1.3,4.8,2.9,6.1,4.8c1.3,1.9,1.9,4.2,1.9,6.7c0,2.5-0.7,4.9-2.1,7.1
				c-1.4,2.2-3.5,3.9-6.2,5.1c-2.7,1.2-5.7,1.8-9,1.8c-4.3,0-7.8-0.6-10.7-1.9s-5.1-3.1-6.8-5.6
				C1046.1,211.6,1045.3,208.8,1045.2,205.6z"/>
		</g>
	</g>
	<g>
		<path class="st1" d="M1214.1,46V26.6h-7.2V24h17.4v2.6h-7.3V46H1214.1z"/>
		<path class="st1" d="M1227.1,46V24h4.4l5.2,15.5c0.5,1.4,0.8,2.5,1.1,3.3c0.3-0.8,0.6-2,1.2-3.5l5.3-15.3h3.9V46h-2.8V27.6
			l-6.4,18.4h-2.6l-6.3-18.7V46L1227.1,46L1227.1,46z"/>
	</g>
</g>
</svg>
